<svg xmlns="http://www.w3.org/2000/svg" width="693" height="495" fill="none"><g filter="url(#a)"><rect width="642.52" height="401.667" x="7" y="7" fill="#fff" rx="13.386"/></g><g filter="url(#b)"><path fill="#00252E" d="M7 20.386C7 12.993 12.993 7 20.386 7h615.748c7.393 0 13.386 5.993 13.386 13.386v29.458H7V20.386Z"/></g><rect width="133.858" height="16.067" x="55.189" y="20.389" fill="#E1E8EE" rx="3.346"/><g fill="#D8D8D8"><rect width="21.417" height="2.678" x="585.268" y="21.728" rx="1.339"/><rect width="21.417" height="2.678" x="585.268" y="27.083" rx="1.339"/><rect width="21.417" height="2.678" x="585.268" y="32.439" rx="1.339"/></g><ellipse cx="87.315" cy="131.517" fill="url(#c)" rx="32.126" ry="32.133"/><g fill="#E1E8EE"><rect width="76.969" height="10.711" x="156.921" y="107.417" rx="2.008"/><rect width="267.717" height="5.356" x="156.921" y="128.839" rx="2.008"/><rect width="245.407" height="5.356" x="156.921" y="139.55" rx="2.008"/><rect width="223.097" height="5.356" x="156.921" y="150.261" rx="2.008"/></g><g fill="#A7B9C8"><ellipse cx="464.795" cy="131.517" rx="8.031" ry="8.033"/><ellipse cx="507.63" cy="131.517" rx="8.031" ry="8.033"/><ellipse cx="486.212" cy="131.517" rx="8.031" ry="8.033"/><ellipse cx="529.047" cy="131.517" rx="8.031" ry="8.033"/><ellipse cx="550.464" cy="131.517" rx="8.031" ry="8.033"/></g><ellipse cx="85.307" cy="220.553" fill="url(#d)" rx="30.118" ry="30.125"/><g fill="#E1E8EE"><rect width="76.969" height="10.711" x="154.913" y="196.453" rx="2.008"/><rect width="267.717" height="5.356" x="154.913" y="217.875" rx="2.008"/><rect width="245.407" height="5.356" x="154.913" y="228.586" rx="2.008"/><rect width="223.097" height="5.356" x="154.913" y="239.297" rx="2.008"/></g><g fill="#A7B9C8"><ellipse cx="462.787" cy="220.553" rx="8.031" ry="8.033"/><ellipse cx="505.622" cy="220.553" rx="8.031" ry="8.033"/><ellipse cx="484.205" cy="220.553" rx="8.031" ry="8.033"/></g><ellipse cx="85.307" cy="316.283" fill="url(#e)" rx="30.118" ry="30.125"/><g fill="#E1E8EE"><rect width="76.969" height="10.711" x="154.913" y="292.183" rx="2.008"/><rect width="267.717" height="5.356" x="154.913" y="313.606" rx="2.008"/><rect width="245.407" height="5.356" x="154.913" y="324.317" rx="2.008"/><rect width="223.097" height="5.356" x="154.913" y="335.028" rx="2.008"/></g><g fill="#A7B9C8"><ellipse cx="462.787" cy="316.283" rx="8.031" ry="8.033"/><ellipse cx="505.622" cy="316.283" rx="8.031" ry="8.033"/><ellipse cx="484.205" cy="316.283" rx="8.031" ry="8.033"/><ellipse cx="527.039" cy="316.283" rx="8.031" ry="8.033"/></g><g filter="url(#f)"><path fill="#fff" fill-rule="evenodd" d="M472.827 157.667c0-6.309 5.114-11.423 11.422-11.423h191.328c6.309 0 11.423 5.115 11.423 11.423v319.91c0 6.309-5.114 11.423-11.423 11.423H484.249c-6.308 0-11.422-5.114-11.422-11.423v-319.91Z" clip-rule="evenodd"/></g><g filter="url(#g)"><path fill="#00252E" fill-rule="evenodd" d="M472.827 157.667c0-6.308 5.114-11.423 11.422-11.423h191.328c6.309 0 11.423 5.115 11.423 11.423v25.138H472.827v-25.138Z" clip-rule="evenodd"/></g><rect width="69.606" height="13.71" x="494.333" y="158.812" fill="#E1E8EE" rx="2.856"/><g fill="#D8D8D8"><rect width="18.276" height="2.285" x="645.879" y="159.955" rx="1.142"/><rect width="18.276" height="2.285" x="645.879" y="164.525" rx="1.142"/><rect width="18.276" height="2.285" x="645.879" y="169.095" rx="1.142"/></g><ellipse cx="504.283" cy="228.586" fill="url(#h)" rx="10.039" ry="10.042"/><g fill="#E1E8EE"><rect width="38.484" height="3.57" x="525.031" y="220.553" rx=".615"/><rect width="133.858" height="1.785" x="525.031" y="227.694" rx=".615"/><rect width="122.703" height="1.785" x="525.031" y="231.264" rx=".615"/><rect width="111.549" height="1.785" x="525.031" y="234.834" rx=".615"/></g><ellipse cx="504.283" cy="320.969" fill="url(#i)" rx="10.039" ry="10.042"/><g fill="#E1E8EE"><rect width="38.484" height="3.57" x="525.031" y="312.936" rx=".615"/><rect width="133.858" height="1.785" x="525.031" y="320.077" rx=".615"/><rect width="122.703" height="1.785" x="525.031" y="323.647" rx=".615"/><rect width="111.549" height="1.785" x="525.031" y="327.218" rx=".615"/></g><g fill="#E1E8EE"><rect width="38.484" height="3.57" x="525.031" y="251.347" rx=".615"/><rect width="133.858" height="1.785" x="525.031" y="258.488" rx=".615"/><rect width="122.703" height="1.785" x="525.031" y="262.058" rx=".615"/><rect width="111.549" height="1.785" x="525.031" y="265.629" rx=".615"/></g><ellipse cx="504.283" cy="259.381" fill="url(#j)" rx="10.039" ry="10.042"/><g fill="#E1E8EE"><rect width="38.484" height="3.57" x="525.031" y="343.731" rx=".615"/><rect width="133.858" height="1.785" x="525.031" y="350.871" rx=".615"/><rect width="122.703" height="1.785" x="525.031" y="354.442" rx=".615"/><rect width="111.549" height="1.785" x="525.031" y="358.012" rx=".615"/></g><ellipse cx="504.283" cy="351.764" fill="url(#k)" rx="10.039" ry="10.042"/><g fill="#E1E8EE"><rect width="38.484" height="3.57" x="525.031" y="282.142" rx=".615"/><rect width="133.858" height="1.785" x="525.031" y="289.282" rx=".615"/><rect width="122.703" height="1.785" x="525.031" y="292.853" rx=".615"/><rect width="111.549" height="1.785" x="525.031" y="296.423" rx=".615"/></g><ellipse cx="504.283" cy="290.175" fill="url(#l)" rx="10.039" ry="10.042"/><g fill="#E1E8EE"><rect width="38.484" height="3.57" x="525.031" y="374.525" rx=".615"/><rect width="133.858" height="1.785" x="525.031" y="381.666" rx=".615"/><rect width="122.703" height="1.785" x="525.031" y="385.236" rx=".615"/><rect width="111.549" height="1.785" x="525.031" y="388.806" rx=".615"/></g><ellipse cx="504.283" cy="382.558" fill="url(#m)" rx="10.039" ry="10.042"/><ellipse cx="504.283" cy="413.353" fill="url(#n)" rx="10.039" ry="10.042"/><g fill="#E1E8EE"><rect width="38.484" height="3.57" x="525.031" y="405.319" rx=".615"/><rect width="133.858" height="1.785" x="525.031" y="412.46" rx=".615"/><rect width="122.703" height="1.785" x="525.031" y="416.031" rx=".615"/><rect width="111.549" height="1.785" x="525.031" y="419.601" rx=".615"/></g><g fill="#E1E8EE"><rect width="38.484" height="3.57" x="525.031" y="436.114" rx=".615"/><rect width="133.858" height="1.785" x="525.031" y="443.255" rx=".615"/><rect width="122.703" height="1.785" x="525.031" y="446.825" rx=".615"/><rect width="111.549" height="1.785" x="525.031" y="450.395" rx=".615"/></g><ellipse cx="504.283" cy="444.147" fill="url(#o)" rx="10.039" ry="10.042"/><defs><linearGradient id="c" x1="19.161" x2="58.489" y1="104.673" y2="195.775" gradientUnits="userSpaceOnUse"><stop stop-color="#FAD961"/><stop offset="1" stop-color="#FF52C1"/></linearGradient><linearGradient id="d" x1="55.189" x2="55.189" y1="190.428" y2="250.678" gradientUnits="userSpaceOnUse"><stop stop-color="#00C7FA"/><stop offset="1" stop-color="#007DFA"/></linearGradient><linearGradient id="e" x1="39.137" x2="76.031" y1="304.603" y2="371.62" gradientUnits="userSpaceOnUse"><stop stop-color="#FF52C1"/><stop offset="1" stop-color="#9952FF"/></linearGradient><linearGradient id="h" x1="482.985" x2="495.275" y1="220.197" y2="248.667" gradientUnits="userSpaceOnUse"><stop stop-color="#FAD961"/><stop offset="1" stop-color="#FF52C1"/></linearGradient><linearGradient id="i" x1="482.985" x2="495.275" y1="312.581" y2="341.05" gradientUnits="userSpaceOnUse"><stop stop-color="#FAD961"/><stop offset="1" stop-color="#FF52C1"/></linearGradient><linearGradient id="j" x1="494.244" x2="494.244" y1="249.339" y2="269.422" gradientUnits="userSpaceOnUse"><stop stop-color="#00C7FA"/><stop offset="1" stop-color="#007DFA"/></linearGradient><linearGradient id="k" x1="494.244" x2="494.244" y1="341.722" y2="361.806" gradientUnits="userSpaceOnUse"><stop stop-color="#00C7FA"/><stop offset="1" stop-color="#007DFA"/></linearGradient><linearGradient id="l" x1="488.893" x2="501.191" y1="286.282" y2="308.621" gradientUnits="userSpaceOnUse"><stop stop-color="#FF52C1"/><stop offset="1" stop-color="#9952FF"/></linearGradient><linearGradient id="m" x1="488.893" x2="501.191" y1="378.665" y2="401.004" gradientUnits="userSpaceOnUse"><stop stop-color="#FF52C1"/><stop offset="1" stop-color="#9952FF"/></linearGradient><linearGradient id="n" x1="482.985" x2="495.275" y1="404.964" y2="433.434" gradientUnits="userSpaceOnUse"><stop stop-color="#FAD961"/><stop offset="1" stop-color="#FF52C1"/></linearGradient><linearGradient id="o" x1="494.244" x2="494.244" y1="434.106" y2="454.189" gradientUnits="userSpaceOnUse"><stop stop-color="#00C7FA"/><stop offset="1" stop-color="#007DFA"/></linearGradient><filter id="a" width="656.52" height="415.667" x="0" y="0" color-interpolation-filters="sRGB" filterUnits="userSpaceOnUse"><feFlood flood-opacity="0" result="BackgroundImageFix"/><feColorMatrix in="SourceAlpha" result="hardAlpha" values="0 0 0 0 0 0 0 0 0 0 0 0 0 0 0 0 0 0 127 0"/><feOffset/><feGaussianBlur stdDeviation="3.5"/><feColorMatrix values="0 0 0 0 0 0 0 0 0 0.145098 0 0 0 0 0.180392 0 0 0 0.181839 0"/><feBlend in2="BackgroundImageFix" result="effect1_dropShadow_70_59"/><feBlend in="SourceGraphic" in2="effect1_dropShadow_70_59" result="shape"/></filter><filter id="b" width="656.52" height="56.844" x="0" y="0" color-interpolation-filters="sRGB" filterUnits="userSpaceOnUse"><feFlood flood-opacity="0" result="BackgroundImageFix"/><feColorMatrix in="SourceAlpha" result="hardAlpha" values="0 0 0 0 0 0 0 0 0 0 0 0 0 0 0 0 0 0 127 0"/><feOffset/><feGaussianBlur stdDeviation="3.5"/><feColorMatrix values="0 0 0 0 0 0 0 0 0 0.145098 0 0 0 0 0.180392 0 0 0 0.181839 0"/><feBlend in2="BackgroundImageFix" result="effect1_dropShadow_70_59"/><feBlend in="SourceGraphic" in2="effect1_dropShadow_70_59" result="shape"/></filter><filter id="f" width="226.173" height="354.756" x="466.827" y="140.244" color-interpolation-filters="sRGB" filterUnits="userSpaceOnUse"><feFlood flood-opacity="0" result="BackgroundImageFix"/><feColorMatrix in="SourceAlpha" result="hardAlpha" values="0 0 0 0 0 0 0 0 0 0 0 0 0 0 0 0 0 0 127 0"/><feOffset/><feGaussianBlur stdDeviation="3"/><feColorMatrix values="0 0 0 0 0 0 0 0 0 0.145098 0 0 0 0 0.180392 0 0 0 0.181839 0"/><feBlend in2="BackgroundImageFix" result="effect1_dropShadow_70_59"/><feBlend in="SourceGraphic" in2="effect1_dropShadow_70_59" result="shape"/></filter><filter id="g" width="226.173" height="48.561" x="466.827" y="140.244" color-interpolation-filters="sRGB" filterUnits="userSpaceOnUse"><feFlood flood-opacity="0" result="BackgroundImageFix"/><feColorMatrix in="SourceAlpha" result="hardAlpha" values="0 0 0 0 0 0 0 0 0 0 0 0 0 0 0 0 0 0 127 0"/><feOffset/><feGaussianBlur stdDeviation="3"/><feColorMatrix values="0 0 0 0 0 0 0 0 0 0.145098 0 0 0 0 0.180392 0 0 0 0.181839 0"/><feBlend in2="BackgroundImageFix" result="effect1_dropShadow_70_59"/><feBlend in="SourceGraphic" in2="effect1_dropShadow_70_59" result="shape"/></filter></defs></svg>